<?xml version="1.0" encoding="utf-8"?>
<!-- Generator: Adobe Illustrator 24.0.0, SVG Export Plug-In . SVG Version: 6.00 Build 0)  -->
<svg version="1.1" xmlns="http://www.w3.org/2000/svg" xmlns:xlink="http://www.w3.org/1999/xlink" x="0px" y="0px"
	 viewBox="0 0 256 256" enable-background="new 0 0 256 256" xml:space="preserve">
<g id="Layer_1">
</g>
<g id="Layer_2">
</g>
<g id="Layer_3">
</g>
<g id="Layer_4">
</g>
<g id="Layer_5">
</g>
<g id="Layer_6">
</g>
<g id="Layer_7">
</g>
<g id="Layer_8">
</g>
<g id="Layer_9">
</g>
<g id="Layer_10">
</g>
<g id="Layer_11">
</g>
<g id="Layer_12">
</g>
<g id="Layer_13">
	<g>
		<g>
			<g>
				<path fill="#F9D0B4" d="M214.234,134.35l-6.323-2.461c0,0.323-0.115,0.651-0.361,0.917l-11.53,12.468
					c-0.15,0.163-0.319,0.301-0.495,0.427c1.05,0.307,2.016,0.584,2.774,0.791c0.709,0.194,0.943,1.078,0.427,1.601l-19.028,19.283
					c0.505,0.364,0.777,1.031,0.537,1.7c-0.161,0.449-0.391,1.024-0.569,1.662c-0.568,2.039,0.622,4.203,2.65,4.808l5.601,1.672
					l28.3-27.049C221.807,144.703,219.899,136.495,214.234,134.35z"/>
			</g>
		</g>
		<g>
			<g>
				<path fill="#FCA265" d="M207.025,130.613l-13.176-5.234c-0.799,1.007-1.973,1.675-3.283,1.841
					c-5.553,0.702-13.562-1.455-17.306-2.943c-0.977-0.388-1.638-1.182-1.894-2.099l-2.542,3.714
					c-3.721,5.437-0.024,13.207,6.372,14.788l17.564,5.512c1.173,0.332,2.433-0.022,3.26-0.917l11.53-12.468
					C208.206,132.096,207.931,130.948,207.025,130.613z"/>
			</g>
		</g>
		<g>
			<g>
				<path fill="#FCA265" d="M175.196,140.679c-4.78-1.181-8.049-5.819-7.845-10.357l-9.111,15.295
					c-0.626,1.051-0.254,2.412,0.82,2.998l12.7,6.928c0.942,0.514,2.119,0.257,2.761-0.602l8.761-11.723L175.196,140.679z"/>
			</g>
		</g>
		<g>
			<g>
				<path fill="#F9D0B4" d="M171.76,155.542l-12.7-6.928c-0.233-0.127-0.426-0.296-0.59-0.485l-0.602,1.016
					c-0.872,1.471-1.929,2.824-3.146,4.026l-19.526,19.28c0.814,0.231,1.326,1.134,0.963,1.993c-0.186,0.439-0.448,1-0.662,1.627
					c-0.682,2.004,0.383,4.232,2.374,4.951l5.497,1.986l21.743-19.224c1.982-1.752,3.765-3.712,5.32-5.851
					c0.506-0.695,1.066-1.463,1.645-2.255C171.969,155.641,171.863,155.598,171.76,155.542z"/>
			</g>
		</g>
		<g>
			<g>
				<path fill="#DAE6F1" d="M139.162,168.534l-3.966,3.916c0.814,0.231,1.326,1.134,0.963,1.993c-0.186,0.439-0.448,1-0.662,1.627
					c-0.682,2.004,0.383,4.232,2.374,4.951l5.497,1.986l5.688-5.028C146.036,175.05,141.772,170.937,139.162,168.534z"/>
			</g>
		</g>
		<g>
			<g>
				<path fill="#DAE6F1" d="M183.785,163.233l-4.088,4.143c0.505,0.364,0.777,1.031,0.537,1.7c-0.161,0.449-0.391,1.024-0.569,1.662
					c-0.568,2.039,0.622,4.203,2.65,4.808l5.601,1.672l5.244-5.012C190.008,169.176,186.844,166.147,183.785,163.233z"/>
			</g>
		</g>
		<g>
			<g>
				
					<ellipse transform="matrix(0.9683 -0.2496 0.2496 0.9683 -9.3931 54.7247)" fill="#F9D0B4" cx="211.079" cy="64.399" rx="13.259" ry="13.259"/>
			</g>
		</g>
		<g>
			<g>
				<g>
					<g>
						<path d="M225.233,57.472c-1.85-3.781-5.062-6.615-9.044-7.98c-3.983-1.365-8.257-1.098-12.037,0.752
							c-3.781,1.851-6.615,5.062-7.98,9.044s-1.098,8.257,0.753,12.038c2.731,5.582,8.347,8.83,14.179,8.83
							c2.323,0,4.68-0.515,6.902-1.603c3.781-1.851,6.615-5.062,7.98-9.044C227.352,65.528,227.084,61.252,225.233,57.472z
							 M221.257,67.888c-0.933,2.718-2.867,4.911-5.448,6.174c-5.332,2.606-11.786,0.394-14.394-4.934s-0.394-11.785,4.935-14.393
							c1.518-0.743,3.127-1.094,4.712-1.094c3.982,0,7.816,2.218,9.682,6.029C222.006,62.251,222.188,65.169,221.257,67.888z"/>
					</g>
				</g>
			</g>
		</g>
		<g>
			<g>
				<path fill="#FCA265" d="M201.565,81.074l-22.641-5.504c-1.305-0.317-2.609,0.528-2.851,1.849l-2.623,14.293
					c-0.221,1.207,0.528,2.379,1.716,2.685l7.706,1.986c0.694,0.179,1.06,0.939,0.767,1.593l-12.118,22.066
					c-0.748,1.669,0.039,3.557,1.739,4.233c3.744,1.488,11.753,3.645,17.306,2.943c1.723-0.218,3.215-1.303,3.922-2.89
					l13.434-31.059C210.18,88.525,206.761,82.292,201.565,81.074z"/>
			</g>
		</g>
		<g>
			<g>
				<path fill="#F5C84C" d="M219.03,102.539l-10.528-13.896c0.27,1.557,0.117,3.162-0.581,4.627l-8.057,18.628l3.892,5.282
					c0.93,1.263,2.781,1.394,3.876,0.258l11.2-11.596C219.704,104.94,219.788,103.539,219.03,102.539z"/>
			</g>
		</g>
		<g>
			<g>
				<path fill="#F9D0B4" d="M253.487,113.268c-0.221-4.042-3.678-7.14-7.72-6.919l-26.863,1.47l-0.857-1.164l-10.33,10.695
					l1.734,2.353c1.466,1.989,3.835,3.106,6.302,2.971l30.816-1.687c0.247-0.013,0.491-0.039,0.731-0.076
					C250.978,120.341,253.695,117.063,253.487,113.268z"/>
			</g>
		</g>
		<g>
			<g>
				<path fill="#F9D0B4" d="M176.011,77.759l-4.637-1.131c-2.436-0.594-5.008,0.088-6.83,1.813l-22.587,21.385
					c-2.963,2.805-3.09,7.481-0.285,10.444c1.735,1.832,4.185,2.58,6.503,2.221c1.43-0.222,2.81-0.865,3.941-1.935l19.665-18.619
					l1.65,0.402c-0.018-0.205-0.019-0.414,0.02-0.626L176.011,77.759z"/>
			</g>
		</g>
		<g>
			<g>
				<path fill="#F5C84C" d="M178.924,75.57c-1.305-0.317-2.609,0.528-2.851,1.849l-2.623,14.293
					c-0.221,1.207,0.528,2.379,1.716,2.685l7.706,1.986c0.484,0.125,0.802,0.534,0.855,0.991l3.919-2.36
					c4.783-2.881,8.442-7.304,10.374-12.543l0.765-2.073L178.924,75.57z"/>
			</g>
		</g>
		<g>
			<g>
				<g>
					<g>
						<path d="M209.969,85.116c-1.572-3.27-4.495-5.689-7.821-6.473l-22.632-5.502c-1.292-0.315-2.665-0.078-3.776,0.642
							c-1.111,0.721-1.886,1.882-2.125,3.185l-2.623,14.292c-0.457,2.486,1.104,4.928,3.551,5.558l6.027,1.554l-11.24,20.468
							c-0.032,0.059-0.063,0.12-0.09,0.181c-0.64,1.427-0.672,3.002-0.091,4.435c0.586,1.443,1.718,2.56,3.188,3.145
							c3.595,1.429,10.304,3.253,15.917,3.253c0.91,0,1.791-0.048,2.626-0.153c2.585-0.327,4.843-1.995,5.903-4.377l13.396-30.978
							C211.516,91.538,211.438,88.174,209.969,85.116z M205.627,92.277l-13.424,31.036c-0.348,0.782-1.077,1.315-1.951,1.425
							c-5.015,0.63-12.515-1.373-16.068-2.786c-0.245-0.097-0.354-0.259-0.402-0.378c-0.058-0.143-0.059-0.292-0.005-0.446
							l12.054-21.948c0.032-0.06,0.063-0.12,0.09-0.182c0.441-0.985,0.426-2.108-0.042-3.081c-0.469-0.973-1.337-1.685-2.382-1.955
							l-7.56-1.949l2.564-13.974l22.474,5.463c0.007,0.001,0.014,0.003,0.021,0.005c1.872,0.439,3.542,1.85,4.467,3.773
							C206.273,88.97,206.348,90.761,205.627,92.277z"/>
					</g>
				</g>
			</g>
		</g>
		<g>
			<g>
				<path d="M221.023,101.03l-10.358-13.672c-0.834-1.1-2.402-1.317-3.503-0.483s-1.316,2.402-0.483,3.502l10.356,13.728
					l-11.266,11.592l-3.631-4.927c-0.819-1.111-2.385-1.349-3.496-0.53c-1.111,0.819-1.349,2.384-0.529,3.496l3.631,4.927
					c0.882,1.198,2.24,1.942,3.727,2.041c0.112,0.007,0.225,0.011,0.337,0.011c1.364,0,2.67-0.551,3.623-1.54l11.201-11.596
					C222.369,105.778,222.534,103.024,221.023,101.03z"/>
			</g>
		</g>
		<g>
			<g>
				<path d="M255.983,113.131c-0.143-2.622-1.299-5.031-3.255-6.784c-1.955-1.752-4.467-2.642-7.098-2.495l-25.521,1.396
					c-0.841-1-2.328-1.187-3.395-0.401c-1.111,0.819-1.349,2.384-0.529,3.496l0.706,0.958c0.499,0.678,1.291,1.052,2.149,1.013
					l26.863-1.47c1.288-0.071,2.527,0.365,3.487,1.226c0.961,0.861,1.529,2.044,1.6,3.333c0.137,2.49-1.615,4.655-4.073,5.037
					c-0.16,0.025-0.322,0.042-0.486,0.051l-30.815,1.687c-1.643,0.084-3.185-0.643-4.153-1.958l-1.587-2.154
					c-0.819-1.111-2.382-1.35-3.496-0.53c-1.111,0.819-1.349,2.384-0.529,3.496l1.587,2.154c1.864,2.53,4.789,4,7.907,4
					c0.181,0,0.363-0.005,0.545-0.015l30.816-1.687c0.331-0.018,0.655-0.052,0.977-0.102
					C252.692,122.605,256.262,118.198,255.983,113.131z"/>
			</g>
		</g>
		<g>
			<g>
				<path d="M176.176,75.226l-4.209-1.027c-3.28-0.801-6.694,0.108-9.142,2.426L140.238,98.01c-1.918,1.815-3.014,4.27-3.086,6.91
					s0.888,5.151,2.704,7.068c1.881,1.988,4.486,3.09,7.183,3.09c0.504,0,1.012-0.039,1.519-0.117
					c1.988-0.309,3.813-1.204,5.277-2.59l18.676-17.683l0.002,0c1.343,0.331,2.693-0.495,3.021-1.837
					c0.327-1.341-0.495-2.694-1.837-3.021l-1.324-0.323c-0.826-0.201-1.694,0.029-2.311,0.613l-19.664,18.618
					c-0.724,0.686-1.625,1.128-2.605,1.28c-1.593,0.246-3.201-0.302-4.305-1.469c-0.897-0.948-1.373-2.189-1.337-3.494
					c0.035-1.305,0.577-2.518,1.525-3.416l22.587-21.385c1.21-1.146,2.9-1.594,4.519-1.199l4.209,1.027
					c1.343,0.328,2.695-0.495,3.021-1.836C178.339,76.905,177.517,75.553,176.176,75.226z"/>
			</g>
		</g>
		<g>
			<g>
				<path d="M199.581,78.238c-1.291-0.474-2.732,0.185-3.211,1.48l-0.696,1.888c-1.729,4.687-5.037,8.688-9.318,11.266l-3.792,2.284
					c-1.183,0.712-1.563,2.249-0.852,3.431c0.47,0.779,1.296,1.211,2.144,1.211c0.439,0,0.884-0.116,1.288-0.359l3.792-2.284
					c5.25-3.162,9.31-8.07,11.43-13.819l0.696-1.888C201.539,80.154,200.876,78.716,199.581,78.238z"/>
			</g>
		</g>
		<g>
			<g>
				<path fill="#5290DB" d="M151.269,201.125c-1.647-2.178-3.216-5.29-3.771-8.23l-1.221-6.47c-0.297-1.574-1.404-2.874-2.911-3.419
					l-5.498-1.987c-1.988-0.718-3.06-2.891-2.391-4.896c0.217-0.649,0.489-1.23,0.68-1.681c0.459-1.084-0.47-2.257-1.651-2.032
					l-9.949,4.42c-1.423,0.901-1.688,2.707-0.656,3.985l15.537,19.246c4.374,5.418,8.617,5.015,10.32,4.552
					C151.37,204.176,152.191,202.346,151.269,201.125z"/>
			</g>
		</g>
		<g>
			<g>
				<g>
					<g>
						<path d="M153.263,199.618c-1.605-2.124-2.872-4.876-3.308-7.186l-1.221-6.469c-0.459-2.432-2.189-4.466-4.518-5.307
							l-5.498-1.987c-0.716-0.259-1.105-1.045-0.868-1.756c0.14-0.42,0.311-0.805,0.454-1.133l0.155-0.362
							c0.574-1.355,0.356-2.908-0.568-4.054c-0.926-1.145-2.404-1.686-3.851-1.409c-0.189,0.036-0.373,0.093-0.548,0.171
							l-9.949,4.42c-0.111,0.05-0.219,0.107-0.322,0.172c-1.271,0.805-2.137,2.096-2.375,3.542
							c-0.239,1.451,0.166,2.955,1.111,4.126l15.537,19.246c3.789,4.693,7.661,5.729,10.34,5.729c1.084,0,1.974-0.169,2.582-0.335
							c1.643-0.447,2.946-1.659,3.486-3.241C154.398,202.331,154.165,200.812,153.263,199.618z M141.385,198.492l-15.537-19.246
							c-0.051-0.063-0.076-0.125-0.069-0.171c0.004-0.023,0.018-0.045,0.036-0.066l7.147-3.176
							c-0.762,3.121,0.976,6.426,4.057,7.539l5.498,1.987c0.672,0.243,1.171,0.829,1.303,1.531l1.221,6.469
							c0.551,2.918,2.012,6.201,3.938,8.875C147.731,202.532,144.74,202.648,141.385,198.492z M149.274,202.633l-0.001-0.001
							L149.274,202.633L149.274,202.633z"/>
					</g>
				</g>
			</g>
		</g>
		<g>
			<g>
				<path fill="#5290DB" d="M196.832,194.859c-1.768-2.081-3.51-5.099-4.231-8.003l-1.585-6.39c-0.386-1.555-1.564-2.79-3.1-3.248
					l-5.602-1.672c-2.025-0.605-3.219-2.713-2.664-4.753c0.18-0.66,0.419-1.256,0.584-1.717c0.397-1.108-0.597-2.227-1.763-1.936
					l-9.682,4.977c-1.369,0.98-1.531,2.798-0.429,4.016l16.602,18.335c4.674,5.162,8.888,4.519,10.562,3.96
					C197.107,197.899,197.822,196.025,196.832,194.859z"/>
			</g>
		</g>
		<g>
			<g>
				<g>
					<g>
						<path d="M198.737,193.241C198.737,193.241,198.737,193.241,198.737,193.241c-1.723-2.028-3.144-4.705-3.709-6.987l-1.586-6.39
							c-0.597-2.402-2.44-4.334-4.812-5.042l-5.602-1.672c-0.729-0.218-1.162-0.981-0.967-1.701
							c0.118-0.433,0.269-0.831,0.394-1.171l0.132-0.361c0.496-1.385,0.19-2.923-0.797-4.014c-0.989-1.09-2.495-1.548-3.925-1.189
							c-0.187,0.046-0.367,0.114-0.538,0.202l-9.683,4.977c-0.108,0.056-0.213,0.12-0.313,0.191
							c-1.223,0.875-2.014,2.213-2.17,3.669c-0.157,1.462,0.332,2.941,1.343,4.058l16.603,18.335c3.76,4.152,7.412,5.15,10.056,5.15
							c1.356,0,2.447-0.263,3.151-0.498c1.615-0.539,2.847-1.823,3.297-3.433C200.025,195.885,199.706,194.381,198.737,193.241z
							 M186.815,192.79l-16.603-18.334c-0.055-0.061-0.084-0.122-0.079-0.168c0.003-0.023,0.016-0.047,0.032-0.068l6.956-3.575
							c-0.584,3.159,1.339,6.361,4.478,7.297l5.602,1.672c0.685,0.204,1.216,0.762,1.388,1.455l1.586,6.39
							c0.715,2.883,2.359,6.078,4.435,8.637C193.379,196.464,190.4,196.749,186.815,192.79z"/>
					</g>
				</g>
			</g>
		</g>
		<g>
			<g>
				<path d="M221.814,140.078c-0.786-3.761-3.289-6.776-6.674-8.057l-5.824-2.267c-1.29-0.5-2.736,0.136-3.237,1.423
					s0.137,2.736,1.423,3.236l5.847,2.275c1.801,0.682,3.137,2.332,3.571,4.413c0.539,2.577-0.354,5.23-2.432,7.26l-28.023,26.786
					c-0.998,0.954-1.034,2.537-0.08,3.535c0.491,0.514,1.149,0.772,1.808,0.772c0.621,0,1.243-0.23,1.728-0.693l28.043-26.805
					C221.257,148.737,222.696,144.297,221.814,140.078z"/>
			</g>
		</g>
		<g>
			<g>
				<g>
					<g>
						<path d="M201.385,146.519c-0.317-1.181-1.247-2.115-2.426-2.438c-0.651-0.178-1.459-0.409-2.341-0.665
							c-1.325-0.385-2.713,0.376-3.099,1.702c-0.376,1.292,0.339,2.643,1.603,3.068L178.135,165.4
							c-0.97,0.982-0.96,2.565,0.023,3.535c0.487,0.481,1.121,0.721,1.756,0.721c0.646,0,1.29-0.249,1.779-0.744l18.813-19.063
							C201.365,148.977,201.702,147.701,201.385,146.519z"/>
					</g>
				</g>
			</g>
		</g>
		<g>
			<g>
				<g>
					<g>
						<path d="M210.304,130.986c-0.301-1.254-1.202-2.271-2.356-2.697l-12.771-5.073c-1.284-0.512-2.736,0.118-3.246,1.4
							c-0.51,1.283,0.117,2.736,1.4,3.246l11.252,4.469l-10.398,11.245c-0.189,0.205-0.474,0.286-0.676,0.229l-17.564-5.512
							c-0.049-0.016-0.099-0.029-0.148-0.042c-2.437-0.603-4.531-2.5-5.466-4.951c-0.807-2.115-0.603-4.302,0.559-5.999l2.45-3.581
							c0.779-1.139,0.488-2.695-0.651-3.475c-1.14-0.78-2.696-0.489-3.476,0.651l-2.45,3.58c-2.1,3.069-2.502,6.934-1.104,10.603
							c1.499,3.934,4.889,6.994,8.859,8.004l17.563,5.51c0.521,0.148,1.051,0.22,1.575,0.22c1.573,0,3.096-0.649,4.2-1.845
							l11.531-12.468C210.261,133.555,210.604,132.241,210.304,130.986z"/>
					</g>
				</g>
			</g>
		</g>
		<g>
			<g>
				<path d="M184.507,141.578c-1.104-0.828-2.672-0.6-3.499,0.506l-8.311,11.122l-12.127-6.616l8.875-14.899
					c0.707-1.186,0.318-2.721-0.868-3.427c-1.187-0.706-2.72-0.318-3.427,0.869l-9.059,15.206c-0.644,1.082-0.822,2.398-0.49,3.612
					s1.156,2.256,2.262,2.859l12.699,6.928c0.697,0.38,1.46,0.563,2.216,0.563c1.433,0,2.843-0.656,3.746-1.863l8.489-11.359
					C185.84,143.971,185.613,142.405,184.507,141.578z"/>
			</g>
		</g>
		<g>
			<g>
				<path d="M173.255,154.065c-1.115-0.816-2.679-0.572-3.494,0.543l-1.352,1.854c-1.443,1.984-3.11,3.817-4.955,5.448
					l-21.484,18.995c-1.034,0.915-1.131,2.495-0.217,3.529c0.494,0.559,1.183,0.844,1.874,0.844c0.589,0,1.18-0.207,1.655-0.627
					l21.484-18.995c2.116-1.872,4.029-3.976,5.686-6.252l1.346-1.846C174.612,156.444,174.369,154.88,173.255,154.065z"/>
			</g>
		</g>
		<g>
			<g>
				<path d="M159.537,146.331c-1.188-0.705-2.722-0.313-3.426,0.875l-0.394,0.664c-0.763,1.286-1.688,2.471-2.753,3.522
					l-19.218,18.976c-0.982,0.97-0.992,2.553-0.022,3.535c0.489,0.496,1.134,0.744,1.779,0.744c0.635,0,1.27-0.24,1.757-0.721
					l19.218-18.976c1.368-1.352,2.56-2.876,3.54-4.529l0.394-0.664C161.116,148.569,160.725,147.035,159.537,146.331z"/>
			</g>
		</g>
		<g>
			<g>
				<path d="M150.578,175.974c-2.863-2.777-6.817-6.59-9.398-8.979c-1.015-0.938-2.596-0.876-3.533,0.136
					c-0.938,1.013-0.877,2.595,0.137,3.533c2.545,2.356,6.469,6.14,9.313,8.898c0.486,0.471,1.114,0.706,1.741,0.706
					c0.652,0,1.304-0.254,1.794-0.759C151.593,178.518,151.568,176.935,150.578,175.974z"/>
			</g>
		</g>
		<g>
			<g>
				<path d="M194.63,170.15c-2.955-2.839-5.918-5.676-8.792-8.414c-1-0.952-2.582-0.915-3.535,0.086
					c-0.952,1-0.913,2.582,0.086,3.534c2.87,2.733,5.827,5.565,8.776,8.399c0.485,0.466,1.109,0.697,1.732,0.697
					c0.656,0,1.312-0.257,1.803-0.768C195.657,172.689,195.625,171.107,194.63,170.15z"/>
			</g>
		</g>
		<g>
			<g>
				<g>
					<path fill="#DAE6F1" d="M124.519,88.032c-2.238-0.365-4.348,1.153-4.713,3.391l-5.541,33.975
						c-0.365,2.238,1.153,4.348,3.391,4.713c2.238,0.365,4.348-1.153,4.713-3.391l5.542-33.975
						C128.275,90.507,126.757,88.397,124.519,88.032z"/>
				</g>
			</g>
			<g>
				<g>
					<path fill="#F9D0B4" d="M93.457,134.35l-6.323-2.461c0,0.323-0.115,0.651-0.361,0.917l-11.53,12.468
						c-0.15,0.163-0.319,0.301-0.495,0.427c1.05,0.307,2.016,0.584,2.774,0.791c0.709,0.194,0.943,1.078,0.427,1.601L58.92,167.376
						c0.505,0.364,0.777,1.031,0.537,1.7c-0.161,0.449-0.391,1.024-0.569,1.662c-0.568,2.039,0.622,4.203,2.65,4.808l5.601,1.672
						l28.3-27.049C101.03,144.703,99.122,136.495,93.457,134.35z"/>
				</g>
			</g>
			<g>
				<g>
					<path fill="#F5C84C" d="M86.248,130.613l-13.176-5.234c-0.799,1.007-1.973,1.675-3.283,1.841
						c-5.553,0.702-13.562-1.455-17.306-2.943c-0.977-0.388-1.638-1.182-1.894-2.099l-2.542,3.714
						c-3.721,5.437-0.024,13.207,6.372,14.788l17.564,5.512c1.173,0.332,2.433-0.022,3.26-0.917l11.53-12.468
						C87.429,132.096,87.154,130.948,86.248,130.613z"/>
				</g>
			</g>
			<g>
				<g>
					<path fill="#F5C84C" d="M54.419,140.679c-4.78-1.181-8.049-5.819-7.845-10.357l-9.111,15.295
						c-0.626,1.051-0.254,2.412,0.82,2.998l12.7,6.928c0.942,0.514,2.119,0.257,2.761-0.602l8.761-11.723L54.419,140.679z"/>
				</g>
			</g>
			<g>
				<g>
					<path fill="#F9D0B4" d="M50.983,155.542l-12.7-6.928c-0.233-0.127-0.426-0.296-0.59-0.485l-0.602,1.016
						c-0.872,1.471-1.929,2.824-3.146,4.026l-19.526,19.28c0.814,0.231,1.326,1.134,0.963,1.993c-0.186,0.439-0.448,1-0.662,1.627
						c-0.682,2.004,0.383,4.232,2.374,4.951l5.497,1.986l21.744-19.224c1.982-1.752,3.765-3.712,5.32-5.851
						c0.506-0.695,1.066-1.463,1.645-2.255C51.192,155.641,51.086,155.598,50.983,155.542z"/>
				</g>
			</g>
			<g>
				<g>
					<path fill="#DAE6F1" d="M18.385,168.534l-3.966,3.916c0.814,0.231,1.326,1.134,0.963,1.993c-0.186,0.439-0.448,1-0.662,1.627
						c-0.682,2.004,0.383,4.232,2.374,4.951l5.497,1.986l5.688-5.028C25.26,175.05,20.995,170.937,18.385,168.534z"/>
				</g>
			</g>
			<g>
				<g>
					<path fill="#DAE6F1" d="M63.008,163.233l-4.088,4.143c0.505,0.364,0.777,1.031,0.537,1.7c-0.161,0.449-0.391,1.024-0.569,1.662
						c-0.568,2.039,0.622,4.203,2.65,4.808l5.601,1.672l5.244-5.012C69.232,169.176,66.067,166.147,63.008,163.233z"/>
				</g>
			</g>
			<g>
				<g>
					
						<ellipse transform="matrix(0.3243 -0.946 0.946 0.3243 0.0987 128.9356)" fill="#F9D0B4" cx="90.302" cy="64.399" rx="13.259" ry="13.259"/>
				</g>
			</g>
			<g>
				<g>
					<g>
						<g>
							<path d="M104.457,57.472c-1.85-3.781-5.062-6.615-9.044-7.98c-3.983-1.365-8.257-1.098-12.038,0.752
								c-3.781,1.851-6.615,5.062-7.98,9.044c-1.365,3.982-1.098,8.257,0.752,12.038c1.851,3.781,5.062,6.615,9.044,7.979
								c1.676,0.574,3.403,0.86,5.124,0.86c2.368,0,4.724-0.541,6.914-1.612c3.781-1.851,6.615-5.062,7.979-9.044
								C106.574,65.528,106.307,61.252,104.457,57.472z M95.031,74.062c-5.328,2.606-11.785,0.394-14.392-4.934
								c-2.608-5.328-0.394-11.785,4.935-14.393c1.495-0.732,3.103-1.101,4.719-1.101c1.175,0,2.354,0.195,3.499,0.587
								c2.718,0.932,4.911,2.867,6.174,5.448C102.574,64.998,100.36,71.455,95.031,74.062z"/>
						</g>
					</g>
				</g>
			</g>
			<g>
				<g>
					<path fill="#F5C84C" d="M80.788,81.074L58.148,75.57c-1.305-0.317-2.609,0.528-2.851,1.849l-2.623,14.293
						c-0.221,1.207,0.528,2.379,1.716,2.685l7.706,1.986c0.694,0.179,1.06,0.939,0.767,1.593l-12.118,22.066
						c-0.748,1.669,0.039,3.557,1.739,4.233c3.744,1.488,11.753,3.645,17.306,2.943c1.723-0.218,3.215-1.303,3.922-2.89
						L87.145,93.27C89.403,88.525,85.984,82.292,80.788,81.074z"/>
				</g>
			</g>
			<g>
				<g>
					<path fill="#FCA265" d="M98.254,102.539L87.725,88.643c0.27,1.557,0.116,3.162-0.581,4.627l-8.057,18.628l3.892,5.282
						c0.93,1.263,2.781,1.394,3.876,0.258l11.2-11.596C98.927,104.94,99.011,103.539,98.254,102.539z"/>
				</g>
			</g>
			<g>
				<g>
					<g>
						<path fill="#F9D0B4" d="M98.128,107.819l-0.858-1.164l-10.33,10.695l1.734,2.353c1.466,1.989,3.835,3.106,6.302,2.971
							l19.911-1.09l2.416-14.815L98.128,107.819z"/>
					</g>
				</g>
				<g>
					<g>
						<path fill="#F9D0B4" d="M132.711,113.268c-0.208-3.806-3.285-6.773-7.019-6.922l-2.411,14.779l2.511-0.137
							c0.247-0.013,0.491-0.039,0.731-0.076C130.201,120.341,132.919,117.063,132.711,113.268z"/>
					</g>
				</g>
			</g>
			<g>
				<g>
					<path fill="#F9D0B4" d="M55.234,77.759l-4.637-1.131c-2.436-0.594-5.008,0.088-6.83,1.813L21.18,99.825
						c-2.963,2.805-3.09,7.481-0.285,10.444c1.735,1.832,4.185,2.58,6.503,2.221c1.43-0.222,2.811-0.865,3.941-1.935l19.665-18.619
						l1.65,0.402c-0.018-0.205-0.019-0.414,0.02-0.626L55.234,77.759z"/>
				</g>
			</g>
			<g>
				<g>
					<path fill="#FCA265" d="M58.148,75.57c-1.305-0.317-2.609,0.528-2.851,1.849l-2.623,14.293
						c-0.221,1.207,0.528,2.379,1.716,2.685l7.706,1.986c0.484,0.125,0.802,0.534,0.855,0.991l3.919-2.36
						c4.783-2.881,8.442-7.304,10.374-12.543l0.765-2.073L58.148,75.57z"/>
				</g>
			</g>
			<g>
				<g>
					<g>
						<g>
							<path d="M89.191,85.115c-1.572-3.27-4.496-5.688-7.822-6.472l-22.631-5.501c-1.288-0.313-2.664-0.08-3.774,0.642
								c-1.112,0.721-1.887,1.882-2.126,3.186l-2.623,14.293c-0.456,2.485,1.104,4.927,3.551,5.557l6.028,1.554L48.552,118.84
								c-0.032,0.059-0.063,0.12-0.09,0.181c-0.64,1.427-0.672,3.001-0.091,4.434c0.585,1.443,1.717,2.561,3.188,3.145
								c3.595,1.429,10.305,3.253,15.917,3.253c0.91,0,1.792-0.048,2.625-0.153c2.584-0.327,4.842-1.995,5.903-4.377l13.397-30.978
								C90.738,91.537,90.662,88.173,89.191,85.115z M84.85,92.277l-13.423,31.035c-0.349,0.783-1.078,1.316-1.952,1.426
								c-5.005,0.634-12.514-1.373-16.069-2.786c-0.244-0.097-0.353-0.259-0.401-0.378c-0.058-0.143-0.06-0.292-0.005-0.446
								l12.053-21.948c0.033-0.06,0.063-0.12,0.09-0.182c0.441-0.985,0.426-2.109-0.043-3.082c-0.468-0.973-1.336-1.685-2.381-1.954
								l-7.56-1.949l2.564-13.974l22.474,5.463c0.006,0.001,0.013,0.003,0.02,0.005c1.873,0.439,3.543,1.85,4.468,3.773
								C85.497,88.969,85.57,90.761,84.85,92.277z"/>
						</g>
					</g>
				</g>
			</g>
			<g>
				<g>
					<path d="M100.246,101.03L89.888,87.357c-0.833-1.101-2.402-1.317-3.502-0.483s-1.317,2.402-0.483,3.502l10.355,13.728
						l-11.265,11.592l-3.63-4.927c-0.819-1.111-2.383-1.349-3.496-0.53c-1.112,0.819-1.349,2.384-0.53,3.496l3.63,4.927
						c0.883,1.198,2.242,1.941,3.728,2.04c0.112,0.007,0.224,0.011,0.336,0.011c1.364,0,2.67-0.551,3.624-1.54l11.199-11.595
						C101.593,105.779,101.758,103.024,100.246,101.03z"/>
				</g>
			</g>
			<g>
				<g>
					<path d="M116.783,104.294l-17.451,0.955c-0.842-1-2.326-1.186-3.395-0.401c-1.111,0.819-1.348,2.384-0.529,3.496l0.706,0.958
						c0.473,0.641,1.221,1.017,2.012,1.017c0.046,0,0.091-0.001,0.137-0.004l18.792-1.029c1.378-0.075,2.435-1.254,2.359-2.633
						S118.138,104.208,116.783,104.294z"/>
				</g>
			</g>
			<g>
				<g>
					<path d="M135.207,113.131c-0.263-4.799-3.915-8.681-8.684-9.229c-1.377-0.161-2.612,0.826-2.77,2.198
						c-0.157,1.372,0.827,2.612,2.198,2.769c2.341,0.27,4.134,2.177,4.263,4.535c0.137,2.49-1.615,4.655-4.074,5.037
						c-0.16,0.025-0.322,0.042-0.486,0.051l-2.089,0.114c-1.378,0.075-2.435,1.254-2.359,2.633c0.073,1.332,1.176,2.363,2.494,2.363
						c0.046,0,0.092-0.001,0.139-0.004l2.09-0.114c0.33-0.018,0.655-0.052,0.976-0.102
						C131.916,122.605,135.485,118.198,135.207,113.131z"/>
				</g>
			</g>
			<g>
				<g>
					<path d="M114.217,119.118l-19.378,1.061c-1.637,0.084-3.184-0.643-4.153-1.958l-1.587-2.154
						c-0.819-1.111-2.383-1.349-3.496-0.53c-1.112,0.819-1.349,2.384-0.53,3.496l1.587,2.154c1.864,2.53,4.789,4,7.907,4
						c0.181,0,0.363-0.005,0.545-0.015l19.378-1.061c1.378-0.075,2.435-1.254,2.359-2.633
						C116.775,120.099,115.595,119.033,114.217,119.118z"/>
				</g>
			</g>
			<g>
				<g>
					<path d="M55.399,75.226l-4.209-1.027c-3.276-0.799-6.692,0.108-9.142,2.426L19.461,98.01c-1.918,1.815-3.014,4.27-3.086,6.91
						s0.888,5.15,2.704,7.068c1.882,1.988,4.486,3.09,7.183,3.09c0.504,0,1.012-0.039,1.519-0.117
						c1.987-0.308,3.812-1.204,5.277-2.59l18.677-17.683h0.001c1.342,0.328,2.694-0.495,3.021-1.836
						c0.327-1.341-0.495-2.694-1.836-3.021l-1.324-0.323c-0.826-0.201-1.695,0.029-2.311,0.613l-19.665,18.618
						c-0.725,0.686-1.625,1.128-2.605,1.28c-1.591,0.248-3.201-0.302-4.305-1.469c-0.897-0.948-1.373-2.189-1.337-3.494
						s0.577-2.518,1.525-3.416l22.586-21.385c1.21-1.146,2.901-1.595,4.52-1.2l4.209,1.027c1.342,0.329,2.694-0.494,3.021-1.836
						C57.562,76.905,56.74,75.553,55.399,75.226z"/>
				</g>
			</g>
			<g>
				<g>
					<path d="M78.803,78.238c-1.297-0.479-2.733,0.186-3.21,1.481l-0.696,1.887c-1.729,4.688-5.038,8.689-9.317,11.267l-3.792,2.284
						c-1.183,0.712-1.564,2.249-0.852,3.431c0.469,0.779,1.296,1.211,2.144,1.211c0.439,0,0.884-0.116,1.287-0.359l3.793-2.284
						c5.25-3.162,9.308-8.07,11.429-13.82l0.696-1.888C80.762,80.153,80.099,78.716,78.803,78.238z"/>
				</g>
			</g>
			<g>
				<g>
					<path fill="#FC657E" d="M30.492,201.125c-1.647-2.178-3.216-5.29-3.771-8.23l-1.221-6.47c-0.297-1.574-1.404-2.874-2.911-3.419
						l-5.498-1.987c-1.988-0.718-3.06-2.891-2.391-4.896c0.217-0.649,0.489-1.23,0.68-1.681c0.459-1.084-0.47-2.257-1.651-2.032
						l-9.949,4.42c-1.423,0.901-1.688,2.707-0.656,3.985l15.537,19.246c4.374,5.418,8.617,5.015,10.32,4.552
						C30.594,204.176,31.414,202.346,30.492,201.125z"/>
				</g>
			</g>
			<g>
				<g>
					<g>
						<g>
							<path d="M32.486,199.618c-1.604-2.123-2.872-4.876-3.308-7.186l-1.221-6.469c-0.458-2.432-2.189-4.466-4.518-5.307
								l-5.498-1.987c-0.716-0.259-1.105-1.045-0.869-1.753c0.142-0.425,0.314-0.813,0.458-1.146l0.152-0.352
								c0.574-1.355,0.357-2.908-0.567-4.054c-0.924-1.146-2.402-1.687-3.852-1.41c-0.189,0.036-0.373,0.093-0.548,0.171
								l-9.949,4.42c-0.111,0.05-0.219,0.107-0.323,0.173c-1.271,0.805-2.136,2.095-2.375,3.541
								c-0.239,1.451,0.166,2.955,1.111,4.126l15.537,19.246c3.789,4.693,7.661,5.729,10.34,5.729c1.084,0,1.973-0.169,2.582-0.335
								c1.643-0.447,2.947-1.658,3.487-3.241C33.622,202.331,33.389,200.812,32.486,199.618z M20.608,198.492L5.071,179.246
								c-0.051-0.063-0.076-0.126-0.069-0.171c0.004-0.023,0.018-0.046,0.036-0.066l7.147-3.176
								c-0.761,3.121,0.977,6.426,4.057,7.539l5.498,1.987c0.672,0.243,1.171,0.83,1.304,1.531l1.221,6.469
								c0.551,2.919,2.011,6.202,3.938,8.875C26.953,202.529,23.961,202.646,20.608,198.492z"/>
						</g>
					</g>
				</g>
			</g>
			<g>
				<g>
					<path fill="#FC657E" d="M76.055,194.859c-1.768-2.081-3.51-5.099-4.231-8.003l-1.585-6.39c-0.386-1.555-1.564-2.79-3.1-3.248
						l-5.602-1.672c-2.025-0.605-3.219-2.713-2.664-4.753c0.18-0.66,0.419-1.256,0.584-1.717c0.397-1.108-0.597-2.227-1.763-1.936
						l-9.682,4.977c-1.369,0.98-1.532,2.798-0.429,4.016l16.602,18.335c4.674,5.162,8.888,4.519,10.562,3.96
						C76.33,197.899,77.045,196.025,76.055,194.859z"/>
				</g>
			</g>
			<g>
				<g>
					<g>
						<g>
							<path d="M77.961,193.241C77.961,193.241,77.96,193.241,77.961,193.241c-1.722-2.028-3.144-4.705-3.71-6.987l-1.585-6.389
								c-0.595-2.402-2.439-4.334-4.811-5.042l-5.602-1.672c-0.729-0.218-1.163-0.981-0.967-1.703
								c0.118-0.435,0.27-0.835,0.396-1.175l0.13-0.354c0.496-1.385,0.19-2.923-0.798-4.014s-2.492-1.548-3.925-1.189
								c-0.187,0.046-0.367,0.114-0.538,0.202l-9.682,4.977c-0.108,0.056-0.213,0.12-0.312,0.191
								c-1.223,0.875-2.014,2.213-2.17,3.67c-0.157,1.462,0.333,2.941,1.343,4.057l16.603,18.335
								c3.759,4.151,7.412,5.15,10.056,5.15c1.356,0,2.447-0.263,3.151-0.498c1.615-0.539,2.847-1.823,3.296-3.433
								C79.249,195.885,78.93,194.381,77.961,193.241z M66.038,192.79l-16.602-18.334c-0.055-0.061-0.083-0.122-0.079-0.168
								c0.002-0.023,0.015-0.046,0.032-0.068l6.956-3.575c-0.584,3.159,1.338,6.36,4.478,7.297l5.602,1.672
								c0.684,0.204,1.216,0.761,1.388,1.455l1.585,6.39c0.716,2.884,2.36,6.078,4.435,8.637
								C72.601,196.463,69.622,196.748,66.038,192.79z"/>
						</g>
					</g>
				</g>
			</g>
			<g>
				<g>
					<path d="M101.038,140.078c-0.786-3.761-3.289-6.776-6.674-8.057l-5.824-2.267c-1.284-0.5-2.735,0.136-3.236,1.423
						c-0.501,1.287,0.136,2.736,1.423,3.236l5.846,2.275c1.802,0.682,3.137,2.332,3.572,4.413c0.539,2.577-0.354,5.23-2.431,7.26
						l-28.024,26.786c-0.998,0.954-1.034,2.537-0.08,3.535c0.491,0.514,1.148,0.772,1.808,0.772c0.621,0,1.243-0.23,1.727-0.693
						l28.044-26.805C100.48,148.737,101.919,144.296,101.038,140.078z"/>
				</g>
			</g>
			<g>
				<g>
					<g>
						<g>
							<path d="M80.608,146.52c-0.316-1.181-1.246-2.116-2.427-2.439c-0.651-0.178-1.458-0.409-2.34-0.665
								c-1.329-0.386-2.713,0.377-3.099,1.702c-0.376,1.292,0.338,2.643,1.602,3.067L57.358,165.4
								c-0.97,0.982-0.959,2.565,0.023,3.535c0.487,0.481,1.122,0.721,1.756,0.721c0.645,0,1.291-0.249,1.779-0.744l18.81-19.062
								C80.588,148.979,80.926,147.703,80.608,146.52z"/>
						</g>
					</g>
				</g>
			</g>
			<g>
				<g>
					<g>
						<g>
							<path d="M89.527,130.988c-0.3-1.255-1.202-2.271-2.357-2.698l-12.771-5.073c-1.283-0.511-2.737,0.117-3.246,1.4
								c-0.51,1.283,0.117,2.736,1.4,3.246l11.251,4.469l-10.398,11.244c-0.189,0.205-0.476,0.287-0.676,0.229l-17.564-5.512
								c-0.049-0.016-0.099-0.029-0.149-0.042c-2.437-0.603-4.532-2.5-5.466-4.951c-0.806-2.115-0.603-4.302,0.558-5.999l2.45-3.581
								c0.78-1.139,0.488-2.695-0.651-3.475c-1.14-0.78-2.696-0.489-3.475,0.651l-2.45,3.58c-2.101,3.069-2.503,6.934-1.104,10.603
								c1.5,3.934,4.889,6.994,8.859,8.004l17.562,5.51c0.522,0.148,1.051,0.22,1.575,0.22c1.574,0,3.096-0.649,4.202-1.845
								l11.529-12.467C89.483,133.557,89.828,132.243,89.527,130.988z"/>
						</g>
					</g>
				</g>
			</g>
			<g>
				<g>
					<path d="M63.73,141.578c-1.107-0.828-2.673-0.6-3.499,0.506l-8.312,11.121l-12.126-6.615l8.875-14.899
						c0.707-1.186,0.318-2.721-0.869-3.427c-1.185-0.706-2.721-0.317-3.427,0.869l-9.058,15.206
						c-0.644,1.082-0.823,2.398-0.491,3.612s1.157,2.256,2.262,2.859l12.699,6.927c0.698,0.381,1.46,0.563,2.216,0.563
						c1.433,0,2.843-0.656,3.745-1.863l8.49-11.359C65.063,143.971,64.836,142.405,63.73,141.578z"/>
				</g>
			</g>
			<g>
				<g>
					<path d="M52.477,154.064c-1.114-0.814-2.678-0.57-3.493,0.545l-1.352,1.854c-1.443,1.984-3.11,3.817-4.954,5.448
						l-21.485,18.995c-1.035,0.915-1.132,2.495-0.217,3.529c0.494,0.559,1.183,0.844,1.874,0.844c0.588,0,1.179-0.207,1.655-0.627
						l21.485-18.995c2.117-1.872,4.03-3.976,5.686-6.252l1.346-1.847C53.835,156.443,53.592,154.879,52.477,154.064z"/>
				</g>
			</g>
			<g>
				<g>
					<path d="M38.76,146.331c-1.188-0.705-2.721-0.313-3.426,0.875l-0.394,0.664c-0.763,1.287-1.689,2.472-2.752,3.522
						L12.97,170.367c-0.982,0.97-0.993,2.553-0.022,3.535c0.489,0.496,1.134,0.744,1.779,0.744c0.634,0,1.27-0.24,1.756-0.721
						l19.218-18.975c1.368-1.351,2.56-2.875,3.541-4.53l0.394-0.664C40.339,148.569,39.948,147.035,38.76,146.331z"/>
				</g>
			</g>
			<g>
				<g>
					<path d="M29.801,175.974c-2.863-2.777-6.817-6.59-9.398-8.979c-1.012-0.938-2.594-0.877-3.533,0.136
						c-0.938,1.013-0.877,2.595,0.136,3.533c2.545,2.356,6.469,6.14,9.313,8.898c0.486,0.471,1.113,0.706,1.741,0.706
						c0.652,0,1.304-0.254,1.794-0.759C30.816,178.518,30.792,176.935,29.801,175.974z"/>
				</g>
			</g>
			<g>
				<g>
					<path d="M73.853,170.15c-2.955-2.839-5.917-5.676-8.792-8.414c-1-0.952-2.582-0.914-3.535,0.085
						c-0.952,1-0.914,2.582,0.085,3.535c2.869,2.733,5.827,5.565,8.777,8.399c0.485,0.466,1.108,0.697,1.731,0.697
						c0.657,0,1.313-0.257,1.803-0.768C74.88,172.689,74.848,171.106,73.853,170.15z"/>
				</g>
			</g>
			<g>
				<g>
					<g>
						<g>
							<path d="M129.22,88.226c-1.03-1.432-2.557-2.377-4.298-2.661c-1.744-0.284-3.489,0.126-4.921,1.157s-2.377,2.558-2.661,4.299
								l-5.542,33.974c-0.586,3.595,1.861,6.997,5.456,7.583c0.36,0.059,0.72,0.088,1.077,0.088c1.373,0,2.708-0.428,3.844-1.246
								c1.432-1.031,2.377-2.558,2.661-4.299l5.542-33.974C130.662,91.406,130.251,89.659,129.22,88.226z M125.443,92.343
								l-5.542,33.975c-0.069,0.423-0.299,0.794-0.647,1.044c-0.349,0.25-0.778,0.35-1.196,0.282
								c-0.874-0.143-1.469-0.97-1.327-1.844l5.542-33.975c0.069-0.423,0.299-0.794,0.647-1.045
								c0.276-0.199,0.601-0.303,0.934-0.303c0.087,0,0.174,0.007,0.262,0.021c0,0,0,0,0,0c0.423,0.069,0.794,0.299,1.045,0.647
								S125.512,91.919,125.443,92.343z"/>
						</g>
					</g>
				</g>
			</g>
		</g>
		<g>
			<g>
				<path fill="#70D6F9" d="M238.2,164.9h-2.3v-2.3c0-1.7-1.4-3.2-3.2-3.2s-3.2,1.4-3.2,3.2v2.3h-2.3c-1.7,0-3.2,1.4-3.2,3.2
					s1.4,3.2,3.2,3.2h2.3v2.3c0,1.7,1.4,3.2,3.2,3.2s3.2-1.4,3.2-3.2v-2.3h2.3c1.7,0,3.2-1.4,3.2-3.2S240,164.9,238.2,164.9z"/>
			</g>
		</g>
		<g>
			<g>
				<path fill="#F5C84C" d="M45.8,52.85c-4.5-0.8-8-4.3-8.9-8.7c0-0.2-0.4-0.2-0.4,0c-0.9,4.4-4.4,7.9-8.9,8.7c-0.2,0-0.2,0.3,0,0.4
					c4.5,0.8,8,4.3,8.9,8.7c0,0.2,0.4,0.2,0.4,0c0.9-4.4,4.4-7.9,8.9-8.7C46,53.15,46,52.85,45.8,52.85z"/>
			</g>
		</g>
		<g>
			<g>
				<path fill="#FC657E" d="M146.281,74.427c-2.76-0.491-4.906-2.637-5.458-5.335c0-0.123-0.245-0.123-0.245,0
					c-0.552,2.698-2.698,4.845-5.458,5.335c-0.123,0-0.123,0.184,0,0.245c2.76,0.491,4.906,2.637,5.458,5.335
					c0,0.123,0.245,0.123,0.245,0c0.552-2.698,2.698-4.845,5.458-5.335C146.403,74.611,146.403,74.427,146.281,74.427z"/>
			</g>
		</g>
		<g>
			<g>
				<path fill="#70D6F9" d="M62.8,37.5c-1.878,0-3.4,1.522-3.4,3.4c0,1.878,1.522,3.4,3.4,3.4c1.878,0,3.4-1.522,3.4-3.4
					C66.2,39.022,64.678,37.5,62.8,37.5z"/>
			</g>
		</g>
		<g>
			<g>
				<path fill="#F5C84C" d="M210.8,179.5c-1.878,0-3.4,1.522-3.4,3.4c0,1.878,1.522,3.4,3.4,3.4c1.878,0,3.4-1.522,3.4-3.4
					C214.2,181.022,212.678,179.5,210.8,179.5z"/>
			</g>
		</g>
		<g>
			<g>
				<path fill="#87D147" d="M117.8,142.5c-1.878,0-3.4,1.522-3.4,3.4c0,1.878,1.522,3.4,3.4,3.4c1.878,0,3.4-1.522,3.4-3.4
					C121.2,144.022,119.678,142.5,117.8,142.5z"/>
			</g>
		</g>
	</g>
</g>
<g id="Layer_14">
</g>
<g id="Layer_15">
</g>
<g id="Layer_16">
</g>
<g id="Layer_17">
</g>
<g id="Layer_18">
</g>
<g id="Layer_19">
</g>
<g id="Layer_20">
</g>
<g id="Layer_21">
</g>
<g id="Layer_22">
</g>
<g id="Layer_23">
</g>
<g id="Layer_24">
</g>
<g id="Layer_25">
</g>
<g id="Layer_26">
</g>
<g id="Layer_27">
</g>
<g id="Layer_28">
</g>
<g id="Layer_29">
</g>
<g id="Layer_30">
</g>
<g id="Layer_31">
</g>
<g id="Layer_32">
</g>
<g id="Layer_33">
</g>
<g id="Layer_34">
</g>
<g id="Layer_35">
</g>
<g id="Layer_36">
</g>
<g id="Layer_37">
</g>
<g id="Layer_38">
</g>
<g id="Layer_39">
</g>
<g id="Layer_40">
</g>
<g id="Layer_41">
</g>
<g id="Layer_42">
</g>
<g id="Layer_43">
</g>
<g id="Layer_44">
</g>
<g id="Layer_45">
</g>
<g id="Layer_46">
</g>
<g id="Layer_47">
</g>
<g id="Layer_48">
</g>
<g id="Layer_49">
</g>
<g id="Layer_50">
</g>
<g id="Layer_51">
</g>
<g id="Layer_52">
</g>
<g id="Layer_53">
</g>
<g id="Layer_54">
</g>
<g id="Layer_55">
</g>
<g id="Layer_56">
</g>
<g id="Layer_57">
</g>
<g id="Layer_58">
</g>
<g id="Layer_59">
</g>
<g id="Layer_60">
</g>
<g id="Layer_61">
</g>
<g id="Layer_62">
</g>
<g id="Layer_63">
</g>
<g id="Layer_64">
</g>
<g id="Layer_65">
</g>
<g id="Layer_66">
</g>
<g id="Layer_67">
</g>
<g id="Layer_68">
</g>
<g id="Layer_69">
</g>
<g id="Layer_70">
</g>
<g id="Layer_71">
</g>
<g id="Layer_72">
</g>
<g id="Layer_73">
</g>
<g id="Layer_74">
</g>
<g id="Layer_75">
</g>
</svg>
